<svg width="18" height="18" viewBox="0 0 18 18" fill="none" xmlns="http://www.w3.org/2000/svg">
<path d="M9 0.875C4.52 0.875 0.875 4.52 0.875 9C0.875 13.48 4.52 17.125 9 17.125C13.48 17.125 17.125 13.48 17.125 9C17.125 4.52 13.48 0.875 9 0.875ZM9 2.125C9.21125 2.125 9.41875 2.13799 9.625 2.15674V2.75H10.875V2.39111C12.4113 2.82799 13.7288 3.78395 14.625 5.05957V7.125L15.25 8.375V9H15.875C15.875 9.22875 15.8627 9.45559 15.8408 9.67871C15.8352 9.73871 15.8227 9.79634 15.8152 9.85571C15.7946 10.0201 15.7732 10.1834 15.7407 10.344C15.7288 10.404 15.713 10.4628 15.6992 10.5222C15.663 10.681 15.624 10.839 15.5771 10.9934C15.5609 11.0465 15.5422 11.0984 15.5247 11.1509C15.4722 11.3096 15.4163 11.4671 15.3525 11.6208C15.3338 11.6658 15.3133 11.7095 15.2939 11.7539C15.2239 11.9133 15.1506 12.0702 15.0693 12.2227C15.05 12.2595 15.0289 12.2957 15.0083 12.3313C14.9208 12.4888 14.8281 12.6415 14.7288 12.7915C14.7094 12.8209 14.6889 12.8512 14.6689 12.8806C14.5639 13.0337 14.4526 13.1824 14.3357 13.3262C14.3163 13.3499 14.2989 13.3726 14.2795 13.3958C14.1583 13.5414 14.03 13.6807 13.8975 13.8157C13.8781 13.835 13.8595 13.8561 13.8401 13.8755C13.7045 14.0099 13.5628 14.1387 13.4165 14.2612C13.3959 14.2787 13.3779 14.2968 13.3567 14.3137C13.2104 14.4337 13.057 14.5456 12.9014 14.6531C12.877 14.67 12.8549 14.6893 12.8306 14.7056C12.6812 14.8062 12.5254 14.8976 12.3679 14.9863C11.6342 15.3982 10.8185 15.6818 9.94849 15.8005L12.4558 13.9109L13.1431 13.2236L14 11.5V10.875L12.75 10.25H12.125L10.875 9H9.625L9 9.625V10.25L8.375 10.875V12.125L9.625 13.1248L8.38965 15.8445C4.88402 15.5332 2.125 12.5844 2.125 9C2.125 6.87 3.09938 4.96343 4.625 3.70093V4L4 4.625V5.99951L4.625 8.375L7.75 9.625H8.375V9L6.5 8.375V7.125H8.375L9 5.5625L10.25 4.625V4L8.375 2.75L7.47656 2.30078C7.96719 2.18953 8.47563 2.125 9 2.125ZM8.375 7.75V8.375H9.625V7.75H8.375Z" fill="black" fill-opacity="0.6"/>
</svg>
